<svg width="172" height="162" viewBox="0 0 172 162" fill="none" xmlns="http://www.w3.org/2000/svg">
<g filter="url(#filter0_d)">
<path fill-rule="evenodd" clip-rule="evenodd" d="M86 149C128.827 149 163 116.473 163 77C163 37.5272 128.827 5 86 5C43.1731 5 9 37.5272 9 77C9 116.473 43.1731 149 86 149ZM86 154C131.287 154 168 119.526 168 77C168 34.4741 131.287 0 86 0C40.7127 0 4 34.4741 4 77C4 119.526 40.7127 154 86 154ZM91 33V68.3338L122.319 33H91ZM91.4226 75.395L129 33V28H86H43V33V116V121H48H86H91H129L132.576 117.505L91.4226 75.395ZM48.6312 33H86V77V105.131L70 74.2468V74H69.8721L48.6312 33ZM48 42.6512L64.241 74H48V42.6512ZM66.8313 79H48V116H86L66.8313 79ZM91 116H124.114L91 82.1163V116Z" fill="white"/>
</g>
<defs>
<filter id="filter0_d" x="0" y="0" width="172" height="162" filterUnits="userSpaceOnUse" color-interpolation-filters="sRGB">
<feFlood flood-opacity="0" result="BackgroundImageFix"/>
<feColorMatrix in="SourceAlpha" type="matrix" values="0 0 0 0 0 0 0 0 0 0 0 0 0 0 0 0 0 0 127 0" result="hardAlpha"/>
<feOffset dy="4"/>
<feGaussianBlur stdDeviation="2"/>
<feComposite in2="hardAlpha" operator="out"/>
<feColorMatrix type="matrix" values="0 0 0 0 0 0 0 0 0 0 0 0 0 0 0 0 0 0 0.25 0"/>
<feBlend mode="normal" in2="BackgroundImageFix" result="effect1_dropShadow"/>
<feBlend mode="normal" in="SourceGraphic" in2="effect1_dropShadow" result="shape"/>
</filter>
</defs>
</svg>
